<svg xmlns="http://www.w3.org/2000/svg" xmlns:xlink="http://www.w3.org/1999/xlink" width="500" zoomAndPan="magnify" viewBox="0 0 375 374.999991" height="500" preserveAspectRatio="xMidYMid meet" version="1.0"><defs><clipPath id="2a3fc2659a"><path d="M 109.972656 89.808594 L 265.222656 89.808594 L 265.222656 245 L 109.972656 245 Z M 109.972656 89.808594 " clip-rule="nonzero"/></clipPath></defs><rect x="-37.5" width="450" fill="#ffffff" y="-37.499999" height="449.999989" fill-opacity="1"/><rect x="-37.5" width="450" fill="#000000" y="-37.499999" height="449.999989" fill-opacity="1"/><g clip-path="url(#2a3fc2659a)"><path fill="#00bf63" d="M 254.144531 198.3125 C 257.242188 199.140625 260.464844 197.289062 261.289062 194.191406 L 264.828125 180.972656 C 265.664062 177.875 263.800781 174.652344 260.703125 173.824219 C 254.1875 171.738281 249.457031 166.085938 248.5625 159.296875 C 247.667969 152.507812 250.773438 145.824219 256.53125 142.117188 C 259.304688 140.511719 260.273438 136.925781 258.667969 134.144531 L 251.828125 122.292969 C 250.226562 119.511719 246.636719 118.550781 243.855469 120.15625 C 237.769531 123.289062 230.425781 122.628906 224.996094 118.472656 C 219.570312 114.304688 217.03125 107.375 218.488281 100.691406 C 219.316406 97.59375 217.460938 94.371094 214.355469 93.542969 L 201.144531 90 C 198.046875 89.171875 194.828125 91.023438 194 94.121094 C 191.910156 100.640625 186.257812 105.371094 179.46875 106.265625 C 172.6875 107.15625 165.996094 104.050781 162.289062 98.296875 C 160.6875 95.511719 157.097656 94.554688 154.316406 96.15625 L 142.46875 102.996094 C 139.691406 104.601562 138.726562 108.191406 140.328125 110.964844 C 143.460938 117.050781 142.8125 124.394531 138.644531 129.828125 C 134.476562 135.253906 127.550781 137.796875 120.863281 136.339844 C 117.765625 135.503906 114.542969 137.363281 113.714844 140.460938 L 110.171875 153.679688 C 109.34375 156.777344 111.199219 160 114.300781 160.828125 C 120.820312 162.914062 125.550781 168.574219 126.445312 175.355469 C 127.335938 182.136719 124.234375 188.832031 118.476562 192.535156 C 115.695312 194.140625 114.734375 197.730469 116.339844 200.503906 L 123.179688 212.351562 C 124.78125 215.136719 128.371094 216.09375 131.144531 214.492188 C 137.230469 211.355469 144.574219 212.007812 150.007812 216.175781 C 155.4375 220.34375 157.976562 227.269531 156.519531 233.957031 C 155.691406 237.054688 157.546875 240.277344 160.644531 241.101562 L 173.859375 244.648438 C 176.957031 245.476562 180.179688 243.621094 181.007812 240.515625 C 183.09375 234 188.753906 229.269531 195.535156 228.375 C 202.316406 227.480469 209.011719 230.585938 212.710938 236.34375 C 214.3125 239.125 217.902344 240.085938 220.683594 238.480469 L 232.53125 231.640625 C 235.316406 230.039062 236.273438 226.449219 234.671875 223.675781 C 231.535156 217.589844 232.195312 210.242188 236.355469 204.808594 C 240.523438 199.382812 247.449219 196.84375 254.136719 198.300781 Z M 143.566406 155.5625 L 143.617188 155.363281 L 143.667969 155.167969 L 143.726562 154.96875 L 143.785156 154.773438 L 143.902344 154.375 L 143.960938 154.179688 L 144.078125 153.78125 L 144.136719 153.585938 L 144.195312 153.386719 L 144.261719 153.195312 L 144.328125 153.007812 L 144.394531 152.816406 L 144.457031 152.625 L 144.523438 152.4375 L 144.589844 152.246094 L 144.664062 152.054688 L 144.730469 151.863281 L 144.796875 151.675781 L 144.867188 151.484375 L 145.015625 151.101562 L 145.089844 150.914062 C 145.140625 150.789062 145.183594 150.664062 145.234375 150.539062 L 145.308594 150.347656 L 145.382812 150.164062 L 145.453125 149.980469 L 145.527344 149.800781 L 145.601562 149.617188 C 145.652344 149.492188 145.703125 149.367188 145.761719 149.25 L 145.84375 149.066406 C 145.894531 148.941406 145.953125 148.824219 146.003906 148.699219 L 146.085938 148.519531 L 146.164062 148.335938 L 146.253906 148.152344 C 146.304688 148.035156 146.363281 147.910156 146.421875 147.792969 L 146.507812 147.617188 L 146.597656 147.441406 L 146.683594 147.265625 L 146.773438 147.089844 L 146.859375 146.914062 L 146.949219 146.738281 L 147.035156 146.5625 L 147.132812 146.386719 L 147.21875 146.210938 C 147.316406 146.035156 147.402344 145.859375 147.496094 145.691406 C 147.5625 145.574219 147.621094 145.457031 147.6875 145.347656 L 147.785156 145.171875 L 147.878906 145.003906 C 147.945312 144.886719 148.011719 144.777344 148.070312 144.660156 L 148.171875 144.488281 L 148.375 144.152344 L 148.480469 143.984375 L 148.582031 143.816406 C 150.332031 140.921875 152.382812 138.257812 154.683594 135.871094 C 160.648438 129.667969 168.28125 125.257812 176.636719 123.195312 C 179.859375 122.394531 183.191406 121.949219 186.574219 121.882812 C 190.761719 121.804688 195.03125 122.292969 199.277344 123.4375 C 203.527344 124.570312 207.472656 126.277344 211.0625 128.445312 C 213.953125 130.195312 216.621094 132.246094 219.007812 134.546875 C 225.210938 140.511719 229.617188 148.144531 231.683594 156.5 C 232.480469 159.722656 232.929688 163.054688 232.996094 166.4375 L 232.996094 168.019531 L 232.988281 168.214844 L 232.980469 168.613281 C 232.972656 168.808594 232.964844 169.007812 232.957031 169.207031 L 232.949219 169.402344 L 232.941406 169.601562 L 232.9375 169.796875 L 232.90625 170.195312 L 232.890625 170.390625 L 232.878906 170.589844 L 232.863281 170.785156 L 232.847656 170.984375 C 232.832031 171.117188 232.824219 171.25 232.8125 171.378906 L 232.765625 171.777344 L 232.746094 171.972656 C 232.730469 172.105469 232.714844 172.238281 232.703125 172.367188 L 232.65625 172.765625 L 232.628906 172.960938 L 232.605469 173.160156 L 232.578125 173.359375 L 232.546875 173.554688 L 232.519531 173.753906 L 232.488281 173.949219 C 232.46875 174.082031 232.445312 174.214844 232.429688 174.347656 L 232.402344 174.542969 L 232.371094 174.742188 L 232.335938 174.9375 L 232.296875 175.136719 L 232.261719 175.335938 L 232.226562 175.53125 L 232.1875 175.730469 L 232.152344 175.929688 L 232.117188 176.125 L 232.078125 176.324219 L 232.035156 176.519531 L 231.992188 176.71875 L 231.945312 176.917969 L 231.902344 177.113281 L 231.859375 177.3125 L 231.816406 177.507812 L 231.769531 177.707031 L 231.726562 177.90625 L 231.675781 178.101562 L 231.574219 178.5 L 231.523438 178.695312 L 231.472656 178.894531 L 231.417969 179.089844 L 231.316406 179.488281 L 231.265625 179.683594 L 231.207031 179.882812 L 231.148438 180.078125 L 231.03125 180.476562 L 230.972656 180.671875 L 230.914062 180.871094 L 230.855469 181.0625 L 230.789062 181.257812 L 230.730469 181.449219 L 230.664062 181.640625 L 230.601562 181.832031 L 230.535156 182.027344 L 230.402344 182.410156 L 230.335938 182.597656 L 230.269531 182.789062 L 230.195312 182.980469 L 230.125 183.171875 L 230.050781 183.359375 L 229.902344 183.742188 C 229.851562 183.867188 229.808594 183.992188 229.757812 184.113281 L 229.683594 184.296875 L 229.609375 184.488281 L 229.539062 184.679688 L 229.390625 185.046875 L 229.3125 185.226562 L 229.148438 185.59375 C 229.097656 185.710938 229.046875 185.835938 228.988281 185.960938 L 228.90625 186.144531 L 228.828125 186.328125 L 228.746094 186.507812 C 228.6875 186.625 228.628906 186.75 228.578125 186.867188 L 228.492188 187.050781 L 228.402344 187.226562 L 228.316406 187.402344 L 228.226562 187.578125 L 228.140625 187.753906 L 228.050781 187.929688 L 227.964844 188.105469 L 227.867188 188.28125 L 227.78125 188.457031 C 227.691406 188.632812 227.597656 188.808594 227.503906 188.984375 C 227.4375 189.101562 227.378906 189.21875 227.3125 189.328125 L 227.214844 189.496094 L 227.121094 189.664062 C 227.054688 189.78125 226.988281 189.894531 226.929688 190.011719 L 226.625 190.515625 L 226.519531 190.683594 L 226.417969 190.851562 C 224.667969 193.746094 222.617188 196.402344 220.316406 198.796875 C 214.351562 205 206.71875 209.410156 198.363281 211.472656 C 195.140625 212.273438 191.816406 212.71875 188.433594 212.785156 C 184.246094 212.871094 179.976562 212.375 175.726562 211.230469 C 171.480469 210.089844 167.535156 208.390625 163.945312 206.222656 C 161.050781 204.472656 158.386719 202.421875 156 200.125 C 149.796875 194.15625 145.390625 186.523438 143.324219 178.167969 C 142.527344 174.945312 142.078125 171.613281 142.011719 168.230469 L 142.011719 167.242188 C 142.011719 167.109375 142.011719 166.980469 142.011719 166.847656 L 142.011719 166.648438 L 142.019531 166.453125 C 142.019531 166.320312 142.019531 166.1875 142.027344 166.054688 C 142.035156 165.859375 142.042969 165.660156 142.050781 165.464844 L 142.058594 165.265625 L 142.0625 165.066406 L 142.078125 164.871094 L 142.085938 164.671875 L 142.101562 164.472656 L 142.117188 164.277344 L 142.128906 164.078125 L 142.144531 163.882812 L 142.160156 163.683594 C 142.175781 163.550781 142.179688 163.421875 142.195312 163.289062 L 142.210938 163.089844 L 142.234375 162.894531 L 142.253906 162.695312 C 142.269531 162.5625 142.285156 162.429688 142.296875 162.300781 L 142.320312 162.101562 C 142.335938 161.96875 142.351562 161.839844 142.371094 161.707031 L 142.394531 161.507812 L 142.421875 161.3125 L 142.453125 161.113281 L 142.480469 160.914062 L 142.511719 160.71875 C 142.53125 160.585938 142.546875 160.453125 142.570312 160.324219 L 142.597656 160.125 L 142.628906 159.925781 L 142.664062 159.730469 L 142.699219 159.53125 L 142.738281 159.332031 L 142.773438 159.136719 L 142.8125 158.9375 L 142.847656 158.742188 L 142.882812 158.542969 L 142.921875 158.34375 L 142.964844 158.148438 L 143.007812 157.949219 L 143.050781 157.753906 L 143.097656 157.554688 L 143.140625 157.355469 L 143.183594 157.160156 L 143.234375 156.960938 L 143.28125 156.761719 L 143.332031 156.566406 L 143.382812 156.367188 L 143.433594 156.171875 L 143.535156 155.773438 L 143.585938 155.578125 Z M 143.566406 155.5625 " fill-opacity="1" fill-rule="evenodd"/></g><path fill="#d9d9d9" d="M 210 143.230469 L 214.019531 139.210938 C 209.507812 134.957031 203.914062 131.726562 197.507812 130.003906 C 176.890625 124.484375 155.699219 136.714844 150.171875 157.335938 C 149.65625 159.253906 149.292969 161.179688 149.078125 163.097656 C 154.578125 142.726562 175.546875 130.648438 195.933594 136.113281 C 201.234375 137.53125 205.972656 140 209.992188 143.230469 Z M 210 143.230469 " fill-opacity="1" fill-rule="evenodd"/><path fill="#d9d9d9" d="M 193.78125 170.707031 C 199.636719 167.636719 208.082031 158.242188 219.117188 142.519531 C 202.546875 151.484375 192.316406 158.675781 188.402344 164.101562 C 184.355469 169.734375 187.597656 173.941406 193.78125 170.707031 Z M 193.78125 170.707031 " fill-opacity="1" fill-rule="evenodd"/></svg>